<svg width="80" height="40" viewBox="0 0 80 40" fill="none" xmlns="http://www.w3.org/2000/svg">
<rect width="80" height="40" rx="4" fill="black" fill-opacity="0.08"/>
<path d="M18.1875 22.3828H19.6875C19.6094 23.1016 19.4036 23.7448 19.0703 24.3125C18.737 24.8802 18.2656 25.3307 17.6562 25.6641C17.0469 25.9922 16.2865 26.1562 15.375 26.1562C14.7083 26.1562 14.1016 26.0312 13.5547 25.7812C13.013 25.5312 12.5469 25.1771 12.1562 24.7188C11.7656 24.2552 11.4635 23.7005 11.25 23.0547C11.0417 22.4036 10.9375 21.6797 10.9375 20.8828V19.75C10.9375 18.9531 11.0417 18.2318 11.25 17.5859C11.4635 16.9349 11.7682 16.3776 12.1641 15.9141C12.5651 15.4505 13.0469 15.0938 13.6094 14.8438C14.1719 14.5938 14.8047 14.4688 15.5078 14.4688C16.3672 14.4688 17.0938 14.6302 17.6875 14.9531C18.2812 15.276 18.7422 15.724 19.0703 16.2969C19.4036 16.8646 19.6094 17.5234 19.6875 18.2734H18.1875C18.1146 17.7422 17.9792 17.2865 17.7812 16.9062C17.5833 16.5208 17.3021 16.224 16.9375 16.0156C16.5729 15.8073 16.0964 15.7031 15.5078 15.7031C15.0026 15.7031 14.5573 15.7995 14.1719 15.9922C13.7917 16.1849 13.4714 16.4583 13.2109 16.8125C12.9557 17.1667 12.763 17.5911 12.6328 18.0859C12.5026 18.5807 12.4375 19.1302 12.4375 19.7344V20.8828C12.4375 21.4401 12.4948 21.9635 12.6094 22.4531C12.7292 22.9427 12.9089 23.3724 13.1484 23.7422C13.388 24.112 13.6927 24.4036 14.0625 24.6172C14.4323 24.8255 14.8698 24.9297 15.375 24.9297C16.0156 24.9297 16.526 24.8281 16.9062 24.625C17.2865 24.4219 17.5729 24.1302 17.7656 23.75C17.9635 23.3698 18.1042 22.9141 18.1875 22.3828ZM23.0938 14V26H21.6406V14H23.0938ZM28.9219 26.1562C28.3333 26.1562 27.7995 26.0573 27.3203 25.8594C26.8464 25.6562 26.4375 25.3724 26.0938 25.0078C25.7552 24.6432 25.4948 24.2109 25.3125 23.7109C25.1302 23.2109 25.0391 22.6641 25.0391 22.0703V21.7422C25.0391 21.0547 25.1406 20.4427 25.3438 19.9062C25.5469 19.3646 25.8229 18.9062 26.1719 18.5312C26.5208 18.1562 26.9167 17.8724 27.3594 17.6797C27.8021 17.487 28.2604 17.3906 28.7344 17.3906C29.3385 17.3906 29.8594 17.4948 30.2969 17.7031C30.7396 17.9115 31.1016 18.2031 31.3828 18.5781C31.6641 18.9479 31.8724 19.3854 32.0078 19.8906C32.1432 20.3906 32.2109 20.9375 32.2109 21.5312V22.1797H25.8984V21H30.7656V20.8906C30.7448 20.5156 30.6667 20.151 30.5312 19.7969C30.401 19.4427 30.1927 19.151 29.9062 18.9219C29.6198 18.6927 29.2292 18.5781 28.7344 18.5781C28.4062 18.5781 28.1042 18.6484 27.8281 18.7891C27.5521 18.9245 27.3151 19.1276 27.1172 19.3984C26.9193 19.6693 26.7656 20 26.6562 20.3906C26.5469 20.7812 26.4922 21.2318 26.4922 21.7422V22.0703C26.4922 22.4714 26.5469 22.849 26.6562 23.2031C26.7708 23.5521 26.9349 23.8594 27.1484 24.125C27.3672 24.3906 27.6302 24.599 27.9375 24.75C28.25 24.901 28.6042 24.9766 29 24.9766C29.5104 24.9766 29.9427 24.8724 30.2969 24.6641C30.651 24.4557 30.9609 24.1771 31.2266 23.8281L32.1016 24.5234C31.9193 24.7995 31.6875 25.0625 31.4062 25.3125C31.125 25.5625 30.7786 25.7656 30.3672 25.9219C29.9609 26.0781 29.4792 26.1562 28.9219 26.1562ZM38.8828 24.5547V20.2031C38.8828 19.8698 38.8151 19.5807 38.6797 19.3359C38.5495 19.0859 38.3516 18.8932 38.0859 18.7578C37.8203 18.6224 37.4922 18.5547 37.1016 18.5547C36.737 18.5547 36.4167 18.6172 36.1406 18.7422C35.8698 18.8672 35.6562 19.0312 35.5 19.2344C35.349 19.4375 35.2734 19.6562 35.2734 19.8906H33.8281C33.8281 19.5885 33.9062 19.2891 34.0625 18.9922C34.2188 18.6953 34.4427 18.4271 34.7344 18.1875C35.0312 17.9427 35.3854 17.75 35.7969 17.6094C36.2135 17.4635 36.6771 17.3906 37.1875 17.3906C37.8021 17.3906 38.3438 17.4948 38.8125 17.7031C39.2865 17.9115 39.6562 18.2266 39.9219 18.6484C40.1927 19.0651 40.3281 19.5885 40.3281 20.2188V24.1562C40.3281 24.4375 40.3516 24.737 40.3984 25.0547C40.4505 25.3724 40.526 25.6458 40.625 25.875V26H39.1172C39.0443 25.8333 38.987 25.612 38.9453 25.3359C38.9036 25.0547 38.8828 24.7943 38.8828 24.5547ZM39.1328 20.875L39.1484 21.8906H37.6875C37.276 21.8906 36.9089 21.9245 36.5859 21.9922C36.263 22.0547 35.9922 22.151 35.7734 22.2812C35.5547 22.4115 35.388 22.5755 35.2734 22.7734C35.1589 22.9661 35.1016 23.1927 35.1016 23.4531C35.1016 23.7188 35.1615 23.9609 35.2812 24.1797C35.401 24.3984 35.5807 24.5729 35.8203 24.7031C36.0651 24.8281 36.3646 24.8906 36.7188 24.8906C37.1615 24.8906 37.5521 24.7969 37.8906 24.6094C38.2292 24.4219 38.4974 24.1927 38.6953 23.9219C38.8984 23.651 39.0078 23.388 39.0234 23.1328L39.6406 23.8281C39.6042 24.0469 39.5052 24.2891 39.3438 24.5547C39.1823 24.8203 38.9661 25.0755 38.6953 25.3203C38.4297 25.5599 38.112 25.7604 37.7422 25.9219C37.3776 26.0781 36.9661 26.1562 36.5078 26.1562C35.9349 26.1562 35.4323 26.0443 35 25.8203C34.5729 25.5964 34.2396 25.2969 34 24.9219C33.7656 24.5417 33.6484 24.1172 33.6484 23.6484C33.6484 23.1953 33.737 22.7969 33.9141 22.4531C34.0911 22.1042 34.3464 21.8151 34.6797 21.5859C35.013 21.3516 35.4141 21.1745 35.8828 21.0547C36.3516 20.9349 36.875 20.875 37.4531 20.875H39.1328ZM44.0469 18.875V26H42.6016V17.5469H44.0078L44.0469 18.875ZM46.6875 17.5L46.6797 18.8438C46.5599 18.8177 46.4453 18.8021 46.3359 18.7969C46.2318 18.7865 46.112 18.7812 45.9766 18.7812C45.6432 18.7812 45.349 18.8333 45.0938 18.9375C44.8385 19.0417 44.6224 19.1875 44.4453 19.375C44.2682 19.5625 44.1276 19.7865 44.0234 20.0469C43.9245 20.3021 43.8594 20.5833 43.8281 20.8906L43.4219 21.125C43.4219 20.6146 43.4714 20.1354 43.5703 19.6875C43.6745 19.2396 43.8333 18.8438 44.0469 18.5C44.2604 18.151 44.5312 17.8802 44.8594 17.6875C45.1927 17.4896 45.5885 17.3906 46.0469 17.3906C46.151 17.3906 46.2708 17.4036 46.4062 17.4297C46.5417 17.4505 46.6354 17.474 46.6875 17.5ZM56.4219 15.6328L52.6562 26H51.1172L55.4531 14.625H56.4453L56.4219 15.6328ZM59.5781 26L55.8047 15.6328L55.7812 14.625H56.7734L61.125 26H59.5781ZM59.3828 21.7891V23.0234H52.9922V21.7891H59.3828ZM64 14V26H62.5469V14H64ZM67.8906 14V26H66.4375V14H67.8906Z" fill="black"/>
</svg>
