<svg width="58" height="13" viewBox="0 0 58 13" fill="none" xmlns="http://www.w3.org/2000/svg">
<path opacity="0.6" d="M8.1875 8.38281H9.6875C9.60938 9.10156 9.40365 9.74479 9.07031 10.3125C8.73698 10.8802 8.26562 11.3307 7.65625 11.6641C7.04688 11.9922 6.28646 12.1562 5.375 12.1562C4.70833 12.1562 4.10156 12.0312 3.55469 11.7812C3.01302 11.5312 2.54688 11.1771 2.15625 10.7188C1.76562 10.2552 1.46354 9.70052 1.25 9.05469C1.04167 8.40365 0.9375 7.67969 0.9375 6.88281V5.75C0.9375 4.95312 1.04167 4.23177 1.25 3.58594C1.46354 2.9349 1.76823 2.3776 2.16406 1.91406C2.5651 1.45052 3.04688 1.09375 3.60938 0.84375C4.17188 0.59375 4.80469 0.46875 5.50781 0.46875C6.36719 0.46875 7.09375 0.630208 7.6875 0.953125C8.28125 1.27604 8.74219 1.72396 9.07031 2.29688C9.40365 2.86458 9.60938 3.52344 9.6875 4.27344H8.1875C8.11458 3.74219 7.97917 3.28646 7.78125 2.90625C7.58333 2.52083 7.30208 2.22396 6.9375 2.01562C6.57292 1.80729 6.09635 1.70312 5.50781 1.70312C5.0026 1.70312 4.55729 1.79948 4.17188 1.99219C3.79167 2.1849 3.47135 2.45833 3.21094 2.8125C2.95573 3.16667 2.76302 3.59115 2.63281 4.08594C2.5026 4.58073 2.4375 5.13021 2.4375 5.73438V6.88281C2.4375 7.4401 2.49479 7.96354 2.60938 8.45312C2.72917 8.94271 2.90885 9.3724 3.14844 9.74219C3.38802 10.112 3.69271 10.4036 4.0625 10.6172C4.43229 10.8255 4.86979 10.9297 5.375 10.9297C6.01562 10.9297 6.52604 10.8281 6.90625 10.625C7.28646 10.4219 7.57292 10.1302 7.76562 9.75C7.96354 9.36979 8.10417 8.91406 8.1875 8.38281ZM13.0938 0V12H11.6406V0H13.0938ZM18.9219 12.1562C18.3333 12.1562 17.7995 12.0573 17.3203 11.8594C16.8464 11.6562 16.4375 11.3724 16.0938 11.0078C15.7552 10.6432 15.4948 10.2109 15.3125 9.71094C15.1302 9.21094 15.0391 8.66406 15.0391 8.07031V7.74219C15.0391 7.05469 15.1406 6.44271 15.3438 5.90625C15.5469 5.36458 15.8229 4.90625 16.1719 4.53125C16.5208 4.15625 16.9167 3.8724 17.3594 3.67969C17.8021 3.48698 18.2604 3.39062 18.7344 3.39062C19.3385 3.39062 19.8594 3.49479 20.2969 3.70312C20.7396 3.91146 21.1016 4.20312 21.3828 4.57812C21.6641 4.94792 21.8724 5.38542 22.0078 5.89062C22.1432 6.39062 22.2109 6.9375 22.2109 7.53125V8.17969H15.8984V7H20.7656V6.89062C20.7448 6.51562 20.6667 6.15104 20.5312 5.79688C20.401 5.44271 20.1927 5.15104 19.9062 4.92188C19.6198 4.69271 19.2292 4.57812 18.7344 4.57812C18.4062 4.57812 18.1042 4.64844 17.8281 4.78906C17.5521 4.92448 17.3151 5.1276 17.1172 5.39844C16.9193 5.66927 16.7656 6 16.6562 6.39062C16.5469 6.78125 16.4922 7.23177 16.4922 7.74219V8.07031C16.4922 8.47135 16.5469 8.84896 16.6562 9.20312C16.7708 9.55208 16.9349 9.85938 17.1484 10.125C17.3672 10.3906 17.6302 10.599 17.9375 10.75C18.25 10.901 18.6042 10.9766 19 10.9766C19.5104 10.9766 19.9427 10.8724 20.2969 10.6641C20.651 10.4557 20.9609 10.1771 21.2266 9.82812L22.1016 10.5234C21.9193 10.7995 21.6875 11.0625 21.4062 11.3125C21.125 11.5625 20.7786 11.7656 20.3672 11.9219C19.9609 12.0781 19.4792 12.1562 18.9219 12.1562ZM28.8828 10.5547V6.20312C28.8828 5.86979 28.8151 5.58073 28.6797 5.33594C28.5495 5.08594 28.3516 4.89323 28.0859 4.75781C27.8203 4.6224 27.4922 4.55469 27.1016 4.55469C26.737 4.55469 26.4167 4.61719 26.1406 4.74219C25.8698 4.86719 25.6562 5.03125 25.5 5.23438C25.349 5.4375 25.2734 5.65625 25.2734 5.89062H23.8281C23.8281 5.58854 23.9062 5.28906 24.0625 4.99219C24.2188 4.69531 24.4427 4.42708 24.7344 4.1875C25.0312 3.94271 25.3854 3.75 25.7969 3.60938C26.2135 3.46354 26.6771 3.39062 27.1875 3.39062C27.8021 3.39062 28.3438 3.49479 28.8125 3.70312C29.2865 3.91146 29.6562 4.22656 29.9219 4.64844C30.1927 5.0651 30.3281 5.58854 30.3281 6.21875V10.1562C30.3281 10.4375 30.3516 10.737 30.3984 11.0547C30.4505 11.3724 30.526 11.6458 30.625 11.875V12H29.1172C29.0443 11.8333 28.987 11.612 28.9453 11.3359C28.9036 11.0547 28.8828 10.7943 28.8828 10.5547ZM29.1328 6.875L29.1484 7.89062H27.6875C27.276 7.89062 26.9089 7.92448 26.5859 7.99219C26.263 8.05469 25.9922 8.15104 25.7734 8.28125C25.5547 8.41146 25.388 8.57552 25.2734 8.77344C25.1589 8.96615 25.1016 9.19271 25.1016 9.45312C25.1016 9.71875 25.1615 9.96094 25.2812 10.1797C25.401 10.3984 25.5807 10.5729 25.8203 10.7031C26.0651 10.8281 26.3646 10.8906 26.7188 10.8906C27.1615 10.8906 27.5521 10.7969 27.8906 10.6094C28.2292 10.4219 28.4974 10.1927 28.6953 9.92188C28.8984 9.65104 29.0078 9.38802 29.0234 9.13281L29.6406 9.82812C29.6042 10.0469 29.5052 10.2891 29.3438 10.5547C29.1823 10.8203 28.9661 11.0755 28.6953 11.3203C28.4297 11.5599 28.112 11.7604 27.7422 11.9219C27.3776 12.0781 26.9661 12.1562 26.5078 12.1562C25.9349 12.1562 25.4323 12.0443 25 11.8203C24.5729 11.5964 24.2396 11.2969 24 10.9219C23.7656 10.5417 23.6484 10.1172 23.6484 9.64844C23.6484 9.19531 23.737 8.79688 23.9141 8.45312C24.0911 8.10417 24.3464 7.8151 24.6797 7.58594C25.013 7.35156 25.4141 7.17448 25.8828 7.05469C26.3516 6.9349 26.875 6.875 27.4531 6.875H29.1328ZM34.0469 4.875V12H32.6016V3.54688H34.0078L34.0469 4.875ZM36.6875 3.5L36.6797 4.84375C36.5599 4.81771 36.4453 4.80208 36.3359 4.79688C36.2318 4.78646 36.112 4.78125 35.9766 4.78125C35.6432 4.78125 35.349 4.83333 35.0938 4.9375C34.8385 5.04167 34.6224 5.1875 34.4453 5.375C34.2682 5.5625 34.1276 5.78646 34.0234 6.04688C33.9245 6.30208 33.8594 6.58333 33.8281 6.89062L33.4219 7.125C33.4219 6.61458 33.4714 6.13542 33.5703 5.6875C33.6745 5.23958 33.8333 4.84375 34.0469 4.5C34.2604 4.15104 34.5312 3.88021 34.8594 3.6875C35.1927 3.48958 35.5885 3.39062 36.0469 3.39062C36.151 3.39062 36.2708 3.40365 36.4062 3.42969C36.5417 3.45052 36.6354 3.47396 36.6875 3.5ZM46.4219 1.63281L42.6562 12H41.1172L45.4531 0.625H46.4453L46.4219 1.63281ZM49.5781 12L45.8047 1.63281L45.7812 0.625H46.7734L51.125 12H49.5781ZM49.3828 7.78906V9.02344H42.9922V7.78906H49.3828ZM54 0V12H52.5469V0H54ZM57.8906 0V12H56.4375V0H57.8906Z" fill="black"/>
</svg>
